<svg xmlns="http://www.w3.org/2000/svg" viewBox="0 0 1800 1000">
  <rect width="1800" height="1000" fill="#6a5743"/>
  <path d="M-50 220 C220 140 410 260 690 210 C980 160 1180 90 1510 185 C1660 228 1760 210 1850 160" fill="none" stroke="#d3b087" stroke-opacity="0.36" stroke-width="65"/>
  <path d="M-100 760 C300 660 520 780 840 720 C1120 670 1370 650 1900 735" fill="none" stroke="#2c2018" stroke-opacity="0.55" stroke-width="80"/>
  <path d="M0 420 C350 360 520 470 840 405 C1160 340 1420 385 1800 310" fill="none" stroke="#1e1712" stroke-opacity="0.34" stroke-width="18"/>
  <g fill="#2a1710" opacity="0.34" transform="translate(330 394)">
    <text x="0" y="145" font-family="Georgia,serif" font-size="185" letter-spacing="-18">BE</text>
    <rect x="330" y="10" width="5" height="170"/>
    <text x="390" y="74" font-family="Georgia,serif" font-size="78" letter-spacing="13">BRUSLETTO</text>
    <text x="390" y="165" font-family="Georgia,serif" font-size="78" letter-spacing="13">EIENDOM</text>
  </g>
  <g fill="#d8a27d" opacity="0.86" transform="translate(320 380)">
    <text x="0" y="145" font-family="Georgia,serif" font-size="185" letter-spacing="-18">BE</text>
    <rect x="330" y="10" width="5" height="170"/>
    <text x="390" y="74" font-family="Georgia,serif" font-size="78" letter-spacing="13">BRUSLETTO</text>
    <text x="390" y="165" font-family="Georgia,serif" font-size="78" letter-spacing="13">EIENDOM</text>
  </g>
</svg>
